<svg width="120" height="120" viewBox="0 0 300 300" fill="none" xmlns="http://www.w3.org/2000/svg">
<mask id="mask0_2_5365" style="mask-type:luminance" maskUnits="userSpaceOnUse" x="7" y="13" width="13" height="34">
<path d="M7.76123 13.5425H19.7612V46.4225H7.76123V13.5425Z" fill="white"/>
</mask>
<g mask="url(#mask0_2_5365)">
<path d="M19.6619 23.8288C19.5219 23.4157 19.3819 23.0025 19.2419 22.5894C19.2225 22.5338 19.165 22.4238 19.1875 22.3688C19.2031 22.3307 19.2413 22.3038 19.255 22.2644C19.2681 22.2275 19.2581 22.1875 19.2469 22.1507C19.11 21.7132 18.7525 21.385 18.5144 20.9932C18.2294 20.5225 18.1163 19.9588 17.8013 19.5075C17.5988 19.2169 17.3206 18.9863 17.0263 18.79C16.4594 18.4125 15.8244 18.1507 15.1944 17.8919C14.9369 17.7857 14.6706 17.6782 14.3919 17.68C14.3438 17.7888 14.1469 17.7969 14.0588 17.7169C13.98 17.3 14.025 16.8607 14.1875 16.4694C14.2006 16.4382 14.2156 16.405 14.245 16.3875C14.2775 16.3682 14.3194 16.3732 14.3556 16.3625C14.4406 16.3375 14.4769 16.2388 14.5006 16.1532C14.5369 16.0207 14.5738 15.8838 14.5563 15.7475C14.5388 15.6113 14.4525 15.4744 14.3194 15.44C14.2931 15.4338 14.2644 15.43 14.2456 15.4107C14.2288 15.3932 14.225 15.3669 14.2225 15.3425C14.2019 15.095 14.2656 14.8388 14.1944 14.6007C14.1588 14.48 14.09 14.3719 14.0213 14.2663C13.8875 14.0594 13.7425 13.845 13.5238 13.7313C13.3019 13.6169 13.0925 13.5844 12.8431 13.58C12.3769 13.5719 11.9125 13.8 11.6344 14.1744C11.3563 14.5482 11.2713 15.0588 11.4138 15.5025C11.3744 15.425 11.26 15.4075 11.1863 15.4538C11.1125 15.5007 11.0775 15.5932 11.0769 15.68C11.0763 15.7675 11.1044 15.8519 11.1319 15.935C11.17 16.0469 11.2075 16.1582 11.245 16.27C11.2713 16.3475 11.3 16.4288 11.3619 16.4825C11.4238 16.5369 11.5294 16.5494 11.5825 16.4869C11.6956 16.9232 11.7656 17.3707 11.7919 17.8207C11.7938 17.8557 11.795 17.8932 11.7769 17.9238C11.7606 17.9525 11.7306 17.97 11.7025 17.9863C10.9944 18.3875 10.2869 18.7888 9.57938 19.19C9.38313 19.3013 9.25688 19.4975 9.16313 19.7025C8.95938 20.1482 8.75563 20.5932 8.55188 21.0388C8.5125 21.1238 8.47376 21.2094 8.44188 21.2975C8.37813 21.4757 8.34501 21.6625 8.28501 21.8413C8.24688 21.9569 8.19751 22.0682 8.14626 22.1788C8.11501 22.2457 8.08188 22.3144 8.07688 22.3882C8.07188 22.4625 8.10125 22.5438 8.16688 22.5782C8.1075 22.7263 8.05001 22.8738 7.96001 23.0057C7.89876 23.095 7.83 23.1819 7.79876 23.285C7.76313 23.4013 7.77813 23.5263 7.79438 23.6469C7.8975 24.4132 8.03625 25.2075 8.48688 25.8363C8.6125 26.0125 8.76376 26.1763 8.84126 26.3782C8.95938 26.6857 8.89063 27.0282 8.91063 27.3569C8.91313 27.3988 8.91751 27.4425 8.93751 27.48C8.95813 27.5207 8.99501 27.55 9.03001 27.5788C9.23688 27.7457 9.46625 27.9207 9.73188 27.9219C9.79 27.9225 9.8525 27.9125 9.89688 27.8732C9.92188 27.8513 9.93938 27.82 9.96875 27.8038C10.0275 27.7707 10.11 27.8057 10.1638 27.7663C10.1944 27.7432 10.2075 27.7007 10.2406 27.6813C10.2756 27.6607 10.3194 27.6725 10.3594 27.6782C10.445 27.6907 10.5356 27.6688 10.6069 27.6194C10.6213 27.6094 10.6356 27.5975 10.6438 27.5813C10.6669 27.5357 10.6288 27.4832 10.5906 27.4488C10.4575 27.3263 10.295 27.2382 10.1719 27.1057C10.0494 26.9732 9.97188 26.7713 10.0563 26.6113C10.2738 26.7119 10.3494 27.0282 10.5825 27.0819C10.6456 27.0963 10.7325 27.0675 10.7306 27.0032C10.73 26.985 10.7219 26.9682 10.7144 26.9519C10.6588 26.8344 10.6031 26.7175 10.5475 26.6C10.5019 26.5038 10.455 26.4057 10.38 26.33C10.2119 26.1594 9.92813 26.125 9.79563 25.9263C9.74876 25.8569 9.72688 25.7744 9.705 25.6938C9.64688 25.475 9.58876 25.2557 9.53063 25.0369C9.40125 24.5488 9.27 24.0513 9.29188 23.5469C9.29438 23.4975 9.30001 23.4438 9.33563 23.4094C9.35563 23.39 9.38313 23.38 9.40875 23.3675C9.52625 23.3125 9.61438 23.2113 9.69813 23.1119C9.90625 22.8669 10.1144 22.6219 10.3225 22.3769C10.3869 22.3013 10.4894 22.2188 10.5719 22.2725C10.6263 22.3075 10.6356 22.3832 10.6338 22.4475C10.6288 22.6557 10.5713 22.8588 10.5694 23.0669C10.5688 23.1544 10.5931 23.2175 10.6106 23.2982C10.635 23.41 10.6294 23.5375 10.6381 23.6519C10.6738 24.1225 10.7088 24.5932 10.7444 25.0638C10.76 25.2707 10.7756 25.4782 10.7681 25.6857C10.76 25.9038 10.7263 26.1213 10.7313 26.3394C10.735 26.5069 10.7613 26.6732 10.7756 26.8407C10.8156 27.3088 10.7613 27.7844 10.6163 28.2313C10.53 28.4975 10.41 28.7682 10.4469 29.0457C10.4706 29.2282 10.3869 29.3882 10.34 29.5663C10.2456 29.9294 10.2575 30.3138 10.1606 30.6757C10.0431 31.1125 10.0225 31.525 9.99688 31.9769C9.9625 32.5963 10.1281 33.2082 10.2931 33.8063C10.3 33.8307 10.3069 33.8563 10.3238 33.875C10.3719 33.9294 10.4881 33.9269 10.49 33.9994C10.4956 34.24 10.6319 34.4619 10.7088 34.69C10.8225 35.0282 10.9381 35.3719 10.9544 35.7288C10.9606 35.8575 10.9531 35.9869 10.96 36.1157C10.9688 36.28 11 36.4432 11.0531 36.5988C11.2119 37.0682 11.0225 37.5588 10.9088 38.015C10.8481 38.26 10.8388 38.4932 10.8144 38.7413C10.79 38.9957 10.8556 39.2638 10.89 39.5175C10.9281 39.8032 10.9663 40.0888 11.0188 40.3719C11.2025 41.365 11.5588 42.33 11.6225 43.3382C11.6806 43.4163 11.6681 43.5182 11.6481 43.6132C11.6281 43.7088 11.5875 43.7988 11.5669 43.8944C11.5444 43.9988 11.5463 44.1069 11.5488 44.2138C11.555 44.5119 11.5625 44.8107 11.5875 45.1075C11.5963 45.2169 11.6075 45.3263 11.5938 45.435C11.5788 45.5494 11.5369 45.6588 11.5238 45.7738C11.5119 45.88 11.5256 45.9882 11.5394 46.0944C11.5525 46.1982 11.5744 46.3157 11.6631 46.3713C11.7156 46.4044 11.7813 46.4082 11.8438 46.41C11.9744 46.415 12.1056 46.42 12.2369 46.425C12.29 46.4275 12.3444 46.4288 12.395 46.4144C12.4406 46.4013 12.4819 46.375 12.5225 46.3507C12.6638 46.2657 12.8131 46.1957 12.9675 46.1413C13.1575 46.075 13.3719 46.0207 13.4869 45.855C13.5663 45.74 13.58 45.59 13.555 45.4525C13.53 45.3144 13.47 45.1863 13.4113 45.0594C13.2206 44.6494 13.0325 44.2325 12.9513 43.7875C12.9238 43.6344 12.9019 43.465 12.7875 43.3588C12.6856 42.8732 12.6219 42.35 12.6844 41.8575C12.76 41.2557 12.9588 40.6663 12.95 40.0594C12.9444 39.6057 13.0813 39.1938 13.075 38.74C13.0731 38.5794 13.065 38.4182 13.0313 38.2613C12.9975 38.1032 12.9388 37.9507 12.9031 37.7932C12.8419 37.5213 12.8513 37.2338 12.93 36.9663C13.0131 36.6825 12.9619 36.3619 12.9738 36.0669C12.9781 35.9407 12.9831 35.8144 12.9975 35.6894C13.0088 35.5925 13.0256 35.4963 13.0375 35.3994C13.0775 35.0707 13.0613 34.7382 13.0325 34.4082C12.9894 33.9038 13.0231 33.3894 13.0613 32.885C13.17 33.2057 13.2463 33.5375 13.2888 33.8738C13.3013 33.9725 13.3119 34.0744 13.3581 34.1632C13.375 34.1957 13.3969 34.2263 13.4106 34.2607C13.4275 34.3032 13.4306 34.3494 13.4338 34.3944C13.46 34.8313 13.4419 35.27 13.38 35.7032C13.355 35.8788 13.3231 36.0582 13.36 36.2313C13.4106 36.4657 13.5813 36.6588 13.6431 36.8907C13.8419 37.0688 13.8344 37.3394 13.8406 37.6063C13.8456 37.8194 13.8506 38.0357 13.7975 38.2419C13.755 38.4082 13.6763 38.5619 13.6231 38.725C13.4269 39.3219 13.5838 39.9769 13.8119 40.5625C13.8244 40.5932 13.8369 40.625 13.8606 40.6482C13.8906 40.6782 13.935 40.6894 13.9763 40.6994C14.1325 40.7375 14.3106 40.7725 14.4444 40.6825C14.5038 40.6419 14.5463 40.5807 14.5894 40.5225C14.8938 40.1088 15.31 39.7357 15.3925 39.2288C15.485 38.6644 15.1319 38.1294 15.04 37.5644C15.0325 37.5163 15.0263 37.4663 15.04 37.4194C15.0538 37.3707 15.0863 37.33 15.1175 37.29C15.2625 37.1044 15.3894 36.8969 15.4344 36.6657C15.5294 36.1738 15.2419 35.6694 15.3275 35.1757C15.2981 35.1038 15.3863 35.0107 15.4613 34.9907C15.5363 34.9707 15.6163 34.9844 15.6931 34.97C15.915 34.9294 16.0269 34.6794 16.0681 34.4575C16.1381 34.0744 16.1056 33.68 16.1519 33.2932C16.1988 32.9019 16.3263 32.5232 16.3706 32.1319C16.3906 31.9563 16.3938 31.7794 16.3994 31.6032C16.4206 30.9069 16.4788 30.2119 16.5725 29.5219C16.5875 29.4094 16.6556 29.3007 16.7556 29.2475C16.7831 29.2325 16.815 29.2244 16.835 29.2013C16.855 29.1782 16.8581 29.1463 16.86 29.1163C16.8813 28.7544 16.7969 28.3925 16.8125 28.0307C16.8206 27.8269 16.8606 27.6263 16.8769 27.4232C16.9013 27.1175 16.8713 26.8113 16.8413 26.5063C17.0969 26.2157 17.5325 26.1307 17.8681 25.9369C17.9969 25.8632 18.115 25.7719 18.2331 25.6807C18.4481 25.515 18.6631 25.3488 18.8781 25.1832C19.005 25.085 19.1319 24.9869 19.2475 24.8757C19.3925 24.7363 19.5188 24.5769 19.6213 24.4038C19.6681 24.3232 19.7119 24.2375 19.7213 24.1444C19.7319 24.0369 19.6963 23.9307 19.6619 23.8288ZM17.9375 23.7875C17.9319 23.8325 17.8981 23.8669 17.8669 23.8994C17.6075 24.1663 17.4094 24.4838 17.1569 24.7563C17.1056 24.8119 16.8356 25.1232 16.7531 25.0763C16.7138 25.0538 16.6856 24.5475 16.6725 24.4663C16.6231 24.1563 16.6463 23.84 16.6519 23.5257C16.6588 23.0882 16.6306 22.65 16.5669 22.2169C16.8756 22.4538 17.1219 22.7719 17.275 23.13C17.305 23.2 17.3394 23.2794 17.4106 23.3057C17.4619 23.3244 17.5219 23.3107 17.5719 23.3319C17.605 23.3457 17.6294 23.3732 17.6531 23.3994C17.7238 23.4782 17.7944 23.5569 17.865 23.6357C17.9038 23.6788 17.9456 23.73 17.9375 23.7875Z" fill="#FBAF41"/>
</g>
<path d="M26.2388 23.975V25.3075H28.5713V26.245H26.2388V28.08H25.0713V23.04H28.8813V23.975H26.2388Z" fill="#FBAF41"/>
<path d="M30.0321 23.04H31.1996V28.08H30.0321V23.04Z" fill="#FBAF41"/>
<path d="M33.7987 23.99H32.1862V23.04H36.5762V23.99H34.9637V28.08H33.7987V23.99Z" fill="#FBAF41"/>
<path d="M26.1163 32.6299H24.5038V31.6799H28.8938V32.6299H27.2813V36.7199H26.1163V32.6299Z" fill="#FBAF41"/>
<path d="M33.0934 36.7199L32.1209 35.3149H31.0484V36.7199H29.8809V31.6799H32.0634C32.5097 31.6799 32.8972 31.7549 33.2259 31.9049C33.554 32.0537 33.8065 32.2643 33.9834 32.5374C34.1615 32.8112 34.2509 33.1349 34.2509 33.5099C34.2509 33.8837 34.1609 34.2062 33.9809 34.4774C33.8009 34.7493 33.5447 34.9568 33.2134 35.0999L34.3459 36.7199H33.0934ZM33.0709 33.5099C33.0709 33.2268 32.979 33.0093 32.7959 32.8574C32.614 32.7062 32.3484 32.6299 31.9984 32.6299H31.0484V34.3874H31.9984C32.3484 34.3874 32.614 34.3112 32.7959 34.1574C32.979 34.0043 33.0709 33.7887 33.0709 33.5099Z" fill="#FBAF41"/>
<path d="M38.8529 35.6399H36.5129L36.0654 36.7199H34.8704L37.1179 31.6799H38.2679L40.5229 36.7199H39.2979L38.8529 35.6399ZM38.4854 34.7549L37.6854 32.8249L36.8854 34.7549H38.4854Z" fill="#FBAF41"/>
<path d="M43.8206 36.8075C43.3068 36.8075 42.8418 36.6963 42.4256 36.4725C42.0106 36.2494 41.6837 35.94 41.4456 35.545C41.2087 35.1488 41.0906 34.7 41.0906 34.2C41.0906 33.7 41.2087 33.2525 41.4456 32.8575C41.6837 32.4613 42.0106 32.1513 42.4256 31.9275C42.8418 31.7044 43.3093 31.5925 43.8281 31.5925C44.2643 31.5925 44.6587 31.67 45.0106 31.825C45.3637 31.9788 45.6606 32.1994 45.9006 32.4875L45.1531 33.1775C44.8112 32.7844 44.3887 32.5875 43.8856 32.5875C43.5737 32.5875 43.2956 32.6563 43.0506 32.7925C42.8056 32.9294 42.6143 33.12 42.4781 33.365C42.3412 33.61 42.2731 33.8888 42.2731 34.2C42.2731 34.5119 42.3412 34.79 42.4781 35.035C42.6143 35.28 42.8056 35.4713 43.0506 35.6075C43.2956 35.7444 43.5737 35.8125 43.8856 35.8125C44.3887 35.8125 44.8112 35.6138 45.1531 35.215L45.9006 35.9075C45.6606 36.1994 45.3631 36.4225 45.0081 36.5775C44.6531 36.7307 44.2568 36.8075 43.8206 36.8075Z" fill="#FBAF41"/>
<path d="M48.8807 34.7399L48.2057 35.4449V36.7199H47.0457V31.6799H48.2057V34.0349L50.4382 31.6799H51.7332L49.6457 33.9274L51.8557 36.7199H50.4957L48.8807 34.7399Z" fill="#FBAF41"/>
</svg>
